<svg width="46" height="15" viewBox="0 0 46 15" fill="none" xmlns="http://www.w3.org/2000/svg">
<path d="M2.12216 14H0.460227L5.26705 0.909091H6.90341L11.7102 14H10.0483L6.13636 2.98011H6.03409L2.12216 14ZM2.7358 8.88636H9.43466V10.2926H2.7358V8.88636ZM20.3427 4.18182L16.712 14H15.1779L11.5472 4.18182H13.1836L15.8938 12.0057H15.9961L18.7063 4.18182H20.3427ZM22.3338 14V4.18182H23.8423V14H22.3338ZM23.1009 2.54545C22.8068 2.54545 22.5533 2.44531 22.3402 2.24503C22.1314 2.04474 22.027 1.80398 22.027 1.52273C22.027 1.24148 22.1314 1.00071 22.3402 0.800426C22.5533 0.600142 22.8068 0.5 23.1009 0.5C23.3949 0.5 23.6463 0.600142 23.8551 0.800426C24.0682 1.00071 24.1747 1.24148 24.1747 1.52273C24.1747 1.80398 24.0682 2.04474 23.8551 2.24503C23.6463 2.44531 23.3949 2.54545 23.1009 2.54545ZM30.5939 14.2045C29.7076 14.2045 28.9299 13.9936 28.2608 13.5717C27.5961 13.1499 27.0762 12.5597 26.7012 11.8011C26.3304 11.0426 26.1451 10.1562 26.1451 9.14205C26.1451 8.11932 26.3304 7.22656 26.7012 6.46378C27.0762 5.70099 27.5961 5.10866 28.2608 4.68679C28.9299 4.26491 29.7076 4.05398 30.5939 4.05398C31.4803 4.05398 32.2559 4.26491 32.9206 4.68679C33.5897 5.10866 34.1096 5.70099 34.4803 6.46378C34.8553 7.22656 35.0428 8.11932 35.0428 9.14205C35.0428 10.1562 34.8553 11.0426 34.4803 11.8011C34.1096 12.5597 33.5897 13.1499 32.9206 13.5717C32.2559 13.9936 31.4803 14.2045 30.5939 14.2045ZM30.5939 12.8494C31.2672 12.8494 31.8212 12.6768 32.2559 12.3317C32.6905 11.9865 33.0123 11.5327 33.2211 10.9702C33.4299 10.4077 33.5343 9.7983 33.5343 9.14205C33.5343 8.4858 33.4299 7.87429 33.2211 7.30753C33.0123 6.74077 32.6905 6.28267 32.2559 5.93324C31.8212 5.58381 31.2672 5.40909 30.5939 5.40909C29.9206 5.40909 29.3667 5.58381 28.932 5.93324C28.4973 6.28267 28.1756 6.74077 27.9668 7.30753C27.758 7.87429 27.6536 8.4858 27.6536 9.14205C27.6536 9.7983 27.758 10.4077 27.9668 10.9702C28.1756 11.5327 28.4973 11.9865 28.932 12.3317C29.3667 12.6768 29.9206 12.8494 30.5939 12.8494ZM38.854 8.09375V14H37.3455V4.18182H38.8029V5.71591H38.9308C39.1609 5.21733 39.5103 4.81676 39.979 4.5142C40.4478 4.20739 41.0529 4.05398 41.7944 4.05398C42.4592 4.05398 43.0408 4.19034 43.5394 4.46307C44.038 4.73153 44.4258 5.14062 44.7028 5.69034C44.9798 6.2358 45.1183 6.92614 45.1183 7.76136V14H43.6097V7.86364C43.6097 7.09233 43.4094 6.49148 43.0089 6.06108C42.6083 5.62642 42.0586 5.40909 41.3597 5.40909C40.8782 5.40909 40.4478 5.51349 40.0685 5.7223C39.6935 5.93111 39.3974 6.2358 39.18 6.63636C38.9627 7.03693 38.854 7.52273 38.854 8.09375Z" fill="#22202E"/>
</svg>
